<mxfile host="app.diagrams.net" agent="Mozilla/5.0 (Windows NT 10.0; Win64; x64) AppleWebKit/537.36 (KHTML, like Gecko) Chrome/134.0.0.0 Safari/537.36" version="26.2.8">
  <diagram name="Page-1" id="4atGcYt0EjxyGURMNzWl">
    <mxGraphModel dx="1044" dy="576" grid="1" gridSize="10" guides="1" tooltips="1" connect="1" arrows="1" fold="1" page="1" pageScale="1" pageWidth="827" pageHeight="1169" math="0" shadow="0">
      <root>
        <mxCell id="0" />
        <mxCell id="1" parent="0" />
        <mxCell id="vl4uOmjLkUDd6w82f4VN-1" value="Client" style="ellipse;whiteSpace=wrap;html=1;" vertex="1" parent="1">
          <mxGeometry x="70" y="370" width="120" height="80" as="geometry" />
        </mxCell>
        <mxCell id="vl4uOmjLkUDd6w82f4VN-2" value="Location" style="ellipse;whiteSpace=wrap;html=1;" vertex="1" parent="1">
          <mxGeometry x="580" y="370" width="120" height="80" as="geometry" />
        </mxCell>
        <mxCell id="vl4uOmjLkUDd6w82f4VN-3" value="Produit" style="ellipse;whiteSpace=wrap;html=1;" vertex="1" parent="1">
          <mxGeometry x="580" y="70" width="120" height="80" as="geometry" />
        </mxCell>
        <mxCell id="vl4uOmjLkUDd6w82f4VN-4" value="Etat" style="ellipse;whiteSpace=wrap;html=1;" vertex="1" parent="1">
          <mxGeometry x="320" y="210" width="120" height="80" as="geometry" />
        </mxCell>
        <mxCell id="vl4uOmjLkUDd6w82f4VN-5" value="Catégorie" style="ellipse;whiteSpace=wrap;html=1;" vertex="1" parent="1">
          <mxGeometry x="70" y="70" width="120" height="80" as="geometry" />
        </mxCell>
        <mxCell id="vl4uOmjLkUDd6w82f4VN-14" value="" style="endArrow=none;html=1;rounded=0;entryX=0;entryY=0.5;entryDx=0;entryDy=0;exitX=1;exitY=0.5;exitDx=0;exitDy=0;" edge="1" parent="1" source="vl4uOmjLkUDd6w82f4VN-5" target="vl4uOmjLkUDd6w82f4VN-3">
          <mxGeometry relative="1" as="geometry">
            <mxPoint x="100" y="300" as="sourcePoint" />
            <mxPoint x="260" y="300" as="targetPoint" />
          </mxGeometry>
        </mxCell>
        <mxCell id="vl4uOmjLkUDd6w82f4VN-15" value="" style="endArrow=none;html=1;rounded=0;entryX=0.5;entryY=1;entryDx=0;entryDy=0;exitX=0.5;exitY=0;exitDx=0;exitDy=0;" edge="1" parent="1" source="vl4uOmjLkUDd6w82f4VN-2" target="vl4uOmjLkUDd6w82f4VN-3">
          <mxGeometry relative="1" as="geometry">
            <mxPoint x="160" y="300" as="sourcePoint" />
            <mxPoint x="320" y="300" as="targetPoint" />
          </mxGeometry>
        </mxCell>
        <mxCell id="vl4uOmjLkUDd6w82f4VN-16" value="" style="endArrow=none;html=1;rounded=0;exitX=1;exitY=0.5;exitDx=0;exitDy=0;entryX=0;entryY=0.5;entryDx=0;entryDy=0;" edge="1" parent="1" source="vl4uOmjLkUDd6w82f4VN-1" target="vl4uOmjLkUDd6w82f4VN-2">
          <mxGeometry relative="1" as="geometry">
            <mxPoint x="160" y="300" as="sourcePoint" />
            <mxPoint x="320" y="300" as="targetPoint" />
          </mxGeometry>
        </mxCell>
        <mxCell id="vl4uOmjLkUDd6w82f4VN-17" value="" style="endArrow=none;html=1;rounded=0;exitX=1;exitY=0;exitDx=0;exitDy=0;entryX=0;entryY=1;entryDx=0;entryDy=0;" edge="1" parent="1" source="vl4uOmjLkUDd6w82f4VN-4" target="vl4uOmjLkUDd6w82f4VN-3">
          <mxGeometry relative="1" as="geometry">
            <mxPoint x="160" y="300" as="sourcePoint" />
            <mxPoint x="320" y="300" as="targetPoint" />
          </mxGeometry>
        </mxCell>
        <mxCell id="vl4uOmjLkUDd6w82f4VN-31" value="Relations" style="swimlane;fontStyle=0;childLayout=stackLayout;horizontal=1;startSize=26;horizontalStack=0;resizeParent=1;resizeParentMax=0;resizeLast=0;collapsible=1;marginBottom=0;align=center;fontSize=14;" vertex="1" parent="1">
          <mxGeometry x="110" y="290" width="500" height="278" as="geometry">
            <mxRectangle x="110" y="290" width="60" height="30" as="alternateBounds" />
          </mxGeometry>
        </mxCell>
        <mxCell id="vl4uOmjLkUDd6w82f4VN-32" value="Produit - Catégories : Un produit peut appartenir à plusieurs catégories, et une catégorie peut contenir plusieurs produits. (Relation n:n)" style="text;strokeColor=none;fillColor=none;spacingLeft=4;spacingRight=4;overflow=hidden;rotatable=0;points=[[0,0.5],[1,0.5]];portConstraint=eastwest;fontSize=12;whiteSpace=wrap;html=1;" vertex="1" parent="vl4uOmjLkUDd6w82f4VN-31">
          <mxGeometry y="26" width="500" height="64" as="geometry" />
        </mxCell>
        <mxCell id="vl4uOmjLkUDd6w82f4VN-33" value="Client - Location: Un client peut faire plusieurs locations, mais une location est associée à un seul client. (Relation 1:n)" style="text;strokeColor=none;fillColor=none;spacingLeft=4;spacingRight=4;overflow=hidden;rotatable=0;points=[[0,0.5],[1,0.5]];portConstraint=eastwest;fontSize=12;whiteSpace=wrap;html=1;" vertex="1" parent="vl4uOmjLkUDd6w82f4VN-31">
          <mxGeometry y="90" width="500" height="74" as="geometry" />
        </mxCell>
        <mxCell id="vl4uOmjLkUDd6w82f4VN-34" value="Location - Produit : Une location peut inclure plusieurs produits, et un produit peut être loué dans plusieurs locations. (Relation n:m)&lt;div&gt;&lt;br&gt;&lt;/div&gt;&lt;div&gt;&lt;br&gt;&lt;/div&gt;&lt;div&gt;&lt;br&gt;&lt;div&gt;Produit - État : Chaque produit a un état au moment de la location et au retour. (Relation 1:1)&lt;/div&gt;&lt;/div&gt;" style="text;strokeColor=none;fillColor=none;spacingLeft=4;spacingRight=4;overflow=hidden;rotatable=0;points=[[0,0.5],[1,0.5]];portConstraint=eastwest;fontSize=12;whiteSpace=wrap;html=1;" vertex="1" parent="vl4uOmjLkUDd6w82f4VN-31">
          <mxGeometry y="164" width="500" height="114" as="geometry" />
        </mxCell>
      </root>
    </mxGraphModel>
  </diagram>
</mxfile>
